#!OML:ASF H:\Terrain\Patient Classification 1\Walking\liu\liu.ASF
:FULLY-SPECIFIED
:DEGREES
111
root 8.36767 16.6229 -7.62269 7.41737 -1.14493 -2.29235
lowerback -3.30875 -0.0736771 -2.2657
upperback 0.101517 -0.0794672 3.4788
thorax 1.96986 -0.0800235 4.86614
lowerneck -20.1281 -3.93406 -12.7708
upperneck 18.457 -4.58477 13.2036
head 9.78751 -1.57704 6.17191
rclavicle -4.82053e-015 -5.56597e-015
rhumerus -38.8853 13.4227 -85.4439
rradius 30.4717
rwrist -15.0553
rhand -33.0788 -25.6815
rfingers 7.12502
rthumb -6.29026 -55.5681
lclavicle -4.82053e-015 -5.56597e-015
lhumerus -38.0543 -18.4856 97.1182
lradius 37.5546
lwrist 11.315
lhand -18.6817 -24.7583
lfingers 7.12502
lthumb 7.61241 5.08467
rfemur -19.4904 4.04615 27.2964
rtibia 33.6308
rfoot -20.2053 4.10794
rtoes -14.4432
lfemur -31.2677 10.8899 -19.4274
ltibia 67.9922
lfoot -13.5034 13.07
ltoes -9.13719
112
root 8.368 16.6341 -7.40642 7.3668 -1.5782 -2.13323
lowerback -3.12111 0.0656925 -2.47657
upperback 0.101248 0.11599 3.34399
thorax 1.84419 0.0190324 4.85359
lowerneck -20.1271 -3.86819 -12.4947
upperneck 18.5141 -4.54292 13.0319
head 9.78943 -1.5562 6.06807
rclavicle -1.68967e-015 -3.18055e-015
rhumerus -38.0469 14.8288 -86.2155
rradius 30.9418
rwrist -15.3887
rhand -33.3998 -24.1524
rfingers 7.12502
rthumb -6.60018 -54.0296
lclavicle -1.68967e-015 -3.18055e-015
lhumerus -39.3747 -18.1333 97.1961
lradius 37.2784
lwrist 11.1693
lhand -16.2684 -22.6012
lfingers 7.12502
lthumb 9.94117 7.14411
rfemur -18.4713 4.40221 27.1314
rtibia 33.3855
rfoot -20.725 4.07476
rtoes -13.9554
lfemur -32.6883 10.6696 -19.8852
ltibia 66.7911
lfoot -14.0365 13.3037
ltoes -10.2867
113
root 8.37012 16.6472 -7.19043 7.3285 -2.07214 -2.21401
lowerback -2.94264 0.30115 -2.31641
upperback 0.147831 0.425088 3.20862
thorax 1.76211 0.17689 4.63328
lowerneck -20.3473 -3.94102 -12.173
upperneck 18.6936 -4.67381 12.7678
head 9.89712 -1.61536 5.90245
rclavicle -1.3418e-015 -7.95139e-016
rhumerus -37.2043 15.8272 -86.7711
rradius 31.8568
rwrist -15.7697
rhand -34.0759 -22.5202
rfingers 7.12502
rthumb -7.25287 -52.3759
lclavicle -1.3418e-015 -7.95139e-016
lhumerus -40.7937 -18.0631 97.4211
lradius 37.1024
lwrist 11.6029
lhand -12.3631 -19.2431
lfingers 7.12502
lthumb 13.707 10.2855
rfemur -17.4531 4.84896 27.2268
rtibia 33.0173
rfoot -20.7844 4.07706
rtoes -12.3729
lfemur -34.0163 10.356 -19.9333
ltibia 65.3614
lfoot -14.8233 12.9541
ltoes -4.05211
114
root 8.37038 16.6428 -6.98559 7.36698 -2.39111 -2.51475
lowerback -2.63902 0.579058 -1.98241
upperback -0.0174803 0.785365 3.25394
thorax 1.39007 0.369525 4.49894
lowerneck -19.9568 -4.0717 -12.401
upperneck 18.6265 -4.83041 12.7895
head 9.83065 -1.71433 5.92194
rclavicle 9.29318e-015 2.78299e-015
rhumerus -36.7176 16.7151 -87.0139
rradius 32.714
rwrist -16.1404
rhand -35.4489 -22.971
rfingers 7.12502
rthumb -8.57801 -52.7768
lclavicle 9.29318e-015 2.78299e-015
lhumerus -42.6256 -17.9274 98.0474
lradius 36.9813
lwrist 12.066
lhand -10.6428 -17.8557
lfingers 7.12502
lthumb 15.3646 11.5534
rfemur -16.3852 5.18599 27.5953
rtibia 32.4403
rfoot -21.2878 4.12401
rtoes -11.2643
lfemur -35.4516 10.0443 -19.6242
ltibia 63.8156
lfoot -16.0353 11.6693
ltoes -1.60243
115
root 8.37571 16.6336 -6.76698 7.4529 -2.56609 -2.67081
lowerback -2.65555 0.80488 -1.75828
upperback -0.100278 1.08133 3.28715
thorax 1.29021 0.522183 4.41579
lowerneck -19.5934 -4.21714 -12.7934
upperneck 18.4669 -5.00198 13.0387
head 9.75094 -1.80682 6.0498
rclavicle -1.19271e-014 9.93923e-015
rhumerus -36.0713 17.6749 -87.2204
rradius 33.3953
rwrist -16.6795
rhand -35.2309 -25.1651
rfingers 7.12502
rthumb -8.36764 -54.9794
lclavicle -1.19271e-014 9.93923e-015
lhumerus -44.1299 -17.5414 98.4788
lradius 36.6007
lwrist 12.2709
lhand -11.0133 -18.661
lfingers 7.12502
lthumb 15.0077 10.7751
rfemur -15.1584 4.98788 27.8078
rtibia 31.5629
rfoot -22.0177 4.34506
rtoes -11.212
lfemur -36.8284 9.81015 -19.5826
ltibia 62.1127
lfoot -16.7997 11.1195
ltoes 0.0555387
116
root 8.38442 16.6385 -6.53305 7.5007 -2.99017 -2.79155
lowerback -2.95574 1.06582 -1.52586
upperback 0.0475992 1.42068 3.21841
thorax 1.58759 0.686926 4.23381
lowerneck -19.6349 -4.35405 -12.9936
upperneck 18.3691 -5.19946 13.3776
head 9.77086 -1.87513 6.17865
rclavicle -2.38542e-015 -2.10712e-014
rhumerus -34.9635 18.5452 -87.4402
rradius 33.9531
rwrist -17.3857
rhand -33.9214 -26.28
rfingers 7.12502
rthumb -7.10369 -56.1408
lclavicle -2.38542e-015 -2.10712e-014
lhumerus -45.2162 -17.1223 98.5605
lradius 36.0418
lwrist 12.5751
lhand -11.4036 -19.7179
lfingers 7.12502
lthumb 14.6316 9.74587
rfemur -13.7447 4.87266 27.9369
rtibia 30.4607
rfoot -22.1318 4.61906
rtoes -10.7973
lfemur -38.006 9.74744 -19.6132
ltibia 60.2842
lfoot -17.0481 11.4065
ltoes -4.20605
117
root 8.3869 16.6503 -6.3081 7.49816 -3.45164 -3.2931
lowerback -2.92173 1.27733 -1.04401
upperback 0.148572 1.68356 3.25953
thorax 1.66268 0.819856 4.01484
lowerneck -19.8479 -4.33844 -12.7018
upperneck 18.3389 -5.20869 13.2511
head 9.78901 -1.8647 6.07896
rclavicle -9.93923e-017 -2.78299e-015
rhumerus -33.9072 19.4685 -87.6297
rradius 34.6542
rwrist -17.8415
rhand -33.2394 -27.6843
rfingers 7.12502
rthumb -6.44531 -57.5663
lclavicle -9.93923e-017 -2.78299e-015
lhumerus -46.3061 -16.4482 98.4042
lradius 35.4325
lwrist 12.5781
lhand -11.3069 -20.7124
lfingers 7.12502
lthumb 14.7248 8.7446
rfemur -12.1928 5.16958 28.5279
rtibia 29.1936
rfoot -21.9937 4.36678
rtoes -10.8571
lfemur -39.0602 9.78404 -19.0894
ltibia 58.2107
lfoot -17.0208 11.3933
ltoes -10.4526
118
root 8.38385 16.6419 -6.10077 7.7055 -3.62428 -4.31063
lowerback -2.76938 1.38829 -0.135504
upperback 0.110563 1.79929 3.50382
thorax 1.54936 0.885943 3.75405
lowerneck -20.0295 -4.21122 -12.2014
upperneck 18.2732 -5.04413 12.7722
head 9.74606 -1.79783 5.83635
rclavicle 1.4561e-014 1.19271e-014
rhumerus -32.831 20.3402 -87.6842
rradius 35.3516
rwrist -17.5457
rhand -32.6971 -29.0193
rfingers 7.12502
rthumb -5.92176 -58.9165
lclavicle 1.4561e-014 1.19271e-014
lhumerus -47.4004 -15.7552 98.2392
lradius 34.8218
lwrist 12.6326
lhand -13.692 -23.364
lfingers 7.12502
lthumb 12.4261 6.24659
rfemur -10.8829 5.47597 29.7523
rtibia 27.8708
rfoot -21.9512 3.68462
rtoes -11.8185
lfemur -40.4385 9.67403 -17.929
ltibia 56.0438
lfoot -16.5283 11.2196
ltoes -13.6737
119
root 8.39669 16.6547 -5.83353 7.57488 -4.14181 -3.83586
lowerback -3.25205 1.59239 -0.454579
upperback 0.349323 2.07332 3.28417
thorax 2.0444 1.01329 3.73912
lowerneck -19.9198 -4.14092 -12.1532
upperneck 18.0705 -4.95545 12.7768
head 9.64117 -1.75608 5.83518
rclavicle -1.16289e-014 -3.1408e-014
rhumerus -31.6139 21.0038 -87.6189
rradius 35.8659
rwrist -17.4465
rhand -32.5687 -30.3959
rfingers 7.12502
rthumb -5.79782 -60.2966
lclavicle -1.16289e-014 -3.1408e-014
lhumerus -48.5203 -15.2924 98.2286
lradius 34.2477
lwrist 12.5791
lhand -18.8799 -28.334
lfingers 7.12502
lthumb 7.42111 1.51583
rfemur -9.0945 4.37738 29.0923
rtibia 26.6589
rfoot -22.0213 4.86953
rtoes -11.4671
lfemur -40.6674 9.3704 -18.4411
ltibia 53.4697
lfoot -16.6478 11.3241
ltoes -14.8973
120
root 8.39592 16.6343 -5.61686 7.74683 -4.54777 -4.03415
lowerback -3.39809 1.8371 -0.36662
upperback 0.348257 2.39382 3.31828
thorax 2.10576 1.17371 3.74537
lowerneck -20.1282 -4.41999 -12.4051
upperneck 18.3153 -5.3151 12.978
head 9.83119 -1.91259 5.90956
rclavicle 2.03257e-014 3.89618e-014
rhumerus -30.5066 21.7449 -87.5027
rradius 36.3785
rwrist -17.9239
rhand -32.5443 -30.7251
rfingers 7.12502
rthumb -5.7743 -60.6264
lclavicle 2.03257e-014 3.89618e-014
lhumerus -49.7129 -14.7549 98.2432
lradius 33.5803
lwrist 12.0289
lhand -22.8112 -32.2599
lfingers 7.12502
lthumb 3.62538 -2.31102
rfemur -7.89216 4.47723 29.3452
rtibia 25.6177
rfoot -22.0246 4.76042
rtoes -11.9783
lfemur -41.5956 9.22219 -18.1535
ltibia 50.868
lfoot -16.662 11.2353
ltoes -14.9735
121
root 8.39594 16.6056 -5.40509 7.94958 -4.95281 -4.21483
lowerback -3.39131 2.05402 -0.375196
upperback 0.254645 2.68524 3.38334
thorax 1.98261 1.32153 3.82822
lowerneck -19.9094 -4.55923 -12.6066
upperneck 18.2914 -5.51925 13.1772
head 9.82555 -2.00738 5.98649
rclavicle 5.12864e-014 5.76476e-014
rhumerus -29.5593 22.5358 -87.3704
rradius 36.8764
rwrist -18.326
rhand -31.9655 -27.8475
rfingers 7.12502
rthumb -5.21539 -57.7633
lclavicle 5.12864e-014 5.76476e-014
lhumerus -50.9089 -14.1867 98.223
lradius 32.801
lwrist 11.4696
lhand -25.318 -34.5443
lfingers 7.12502
lthumb 1.2044 -4.56791
rfemur -6.73961 4.7998 29.5791
rtibia 24.698
rfoot -22.1074 4.41809
rtoes -12.3952
lfemur -42.3864 9.11449 -17.8444
ltibia 47.9837
lfoot -16.4064 11.1007
ltoes -14.1797
122
root 8.40184 16.5916 -5.17836 8.20507 -5.31439 -4.30687
lowerback -3.58855 2.18199 -0.374205
upperback 0.186533 2.85423 3.41695
thorax 2.00994 1.40624 3.87742
lowerneck -19.7687 -4.50958 -12.7286
upperneck 18.2939 -5.47379 13.3681
head 9.80371 -1.97932 6.08572
rclavicle -1.16786e-014 -2.18663e-014
rhumerus -28.5686 23.4141 -87.3119
rradius 37.3317
rwrist -18.4644
rhand -31.549 -26.4066
rfingers 7.12502
rthumb -4.81329 -56.332
lclavicle -1.16786e-014 -2.18663e-014
lhumerus -51.9773 -13.3623 98.0294
lradius 31.8622
lwrist 10.6943
lhand -24.5043 -34.0361
lfingers 7.12502
lthumb 1.99027 -4.06563
rfemur -5.63787 4.61016 29.597
rtibia 23.858
rfoot -22.2578 4.76169
rtoes -10.2415
lfemur -43.084 8.72708 -17.5135
ltibia 45.0587
lfoot -15.7004 11.2348
ltoes -14.7174
123
root 8.40091 16.5823 -4.95995 8.39346 -5.53326 -4.53162
lowerback -3.69409 2.22504 -0.354691
upperback 0.175775 2.90668 3.55531
thorax 2.04831 1.43178 4.01735
lowerneck -19.9415 -4.46404 -12.8087
upperneck 18.3478 -5.38453 13.4327
head 9.84545 -1.93109 6.14001
rclavicle -6.95746e-015 -2.78299e-015
rhumerus -27.5294 24.5302 -87.2295
rradius 37.797
rwrist -18.463
rhand -31.9781 -26.7663
rfingers 7.12502
rthumb -5.22763 -56.6818
lclavicle -6.95746e-015 -2.78299e-015
lhumerus -52.8629 -12.149 97.63
lradius 30.7535
lwrist 9.44024
lhand -18.659 -29.6616
lfingers 7.12502
lthumb 7.63429 0.180613
rfemur -4.44633 4.52545 29.8386
rtibia 22.846
rfoot -22.2482 4.62586
rtoes -10.1163
lfemur -43.7251 8.32061 -16.9474
ltibia 42.1304
lfoot -14.9248 11.1655
ltoes -15.7457
124
root 8.40108 16.5625 -4.74662 8.48446 -5.7254 -4.833
lowerback -3.63149 2.31704 -0.311129
upperback 0.170623 3.02555 3.72567
thorax 1.99258 1.4919 4.17225
lowerneck -20.0284 -4.52965 -12.7504
upperneck 18.3822 -5.44852 13.2674
head 9.87604 -1.97136 6.05973
rclavicle -2.81777e-014 -4.77083e-014
rhumerus -26.6173 25.3164 -87.0263
rradius 38.3463
rwrist -18.4658
rhand -33.0217 -27.0674
rfingers 7.12502
rthumb -6.23515 -56.9556
lclavicle -2.81777e-014 -4.77083e-014
lhumerus -53.613 -11.0511 97.1164
lradius 29.623
lwrist 8.21101
lhand -12.081 -27.1055
lfingers 7.12502
lthumb 13.9789 2.40451
rfemur -3.05324 4.37878 30.1815
rtibia 21.5878
rfoot -22.1835 4.19657
rtoes -14.4704
lfemur -44.214 7.96735 -16.2574
ltibia 39.2744
lfoot -14.4669 10.5437
ltoes -15.1309
